<svg 
 xmlns="http://www.w3.org/2000/svg"
 xmlns:xlink="http://www.w3.org/1999/xlink"
 width="55px" height="55px">
<path fill-rule="evenodd"  fill="rgb(34, 34, 34)"
 d="M39.312,51.125 L35.937,51.125 C34.075,51.125 32.562,49.612 32.562,47.750 L32.562,42.687 L22.437,42.687 L22.437,47.750 C22.437,49.612 20.925,51.125 19.062,51.125 L15.687,51.125 C14.754,51.125 14.000,51.881 14.000,52.812 C14.000,53.745 14.754,54.500 15.687,54.500 L39.312,54.500 C40.245,54.500 41.000,53.745 41.000,52.812 C41.000,51.881 40.245,51.125 39.312,51.125 ZM51.547,0.499 L3.453,0.499 C1.823,0.499 0.500,1.917 0.500,3.664 L0.500,36.148 C0.500,37.895 1.823,39.312 3.453,39.312 L51.547,39.312 C53.177,39.312 54.500,37.895 54.500,36.148 L54.500,3.664 C54.500,1.917 53.177,0.499 51.547,0.499 ZM51.125,35.937 L3.875,35.937 L3.875,3.875 L51.125,3.875 L51.125,35.937 Z"/>
</svg>