<svg 
 xmlns="http://www.w3.org/2000/svg"
 xmlns:xlink="http://www.w3.org/1999/xlink"
 width="48px" height="55px">
<path fill-rule="evenodd"  fill="rgb(0, 0, 0)"
 d="M47.694,38.054 C47.370,38.535 46.839,38.804 46.232,38.804 C45.533,38.804 44.827,38.415 44.465,38.186 L44.253,38.024 C44.213,37.985 39.645,33.883 31.380,33.883 C28.281,33.883 25.022,34.457 21.692,35.584 C21.579,35.621 21.166,35.747 20.633,35.747 C19.330,35.747 18.304,35.004 17.880,33.754 L13.823,21.763 C13.656,21.397 13.364,20.548 13.721,19.618 C13.931,19.071 14.430,18.339 15.625,17.934 C15.845,17.870 29.037,14.118 31.964,2.457 C32.349,1.304 33.028,0.066 34.281,0.066 C34.782,0.066 35.687,0.274 36.161,1.677 L40.222,13.695 C42.287,14.332 43.928,15.908 44.625,17.966 C45.321,20.023 44.966,22.271 43.716,24.025 L47.774,36.019 C47.873,36.257 48.258,37.212 47.694,38.054 ZM40.361,23.360 L37.961,16.260 L34.225,5.221 C30.227,16.509 18.022,20.331 16.607,20.739 L20.691,32.806 C24.375,31.543 27.959,30.920 31.377,30.920 C37.377,30.920 41.654,32.813 44.048,34.255 L40.361,23.360 ZM24.919,21.916 C24.402,21.916 23.931,21.574 23.787,21.054 C23.616,20.431 23.978,19.784 24.608,19.612 C24.681,19.592 31.659,17.616 32.256,12.913 C32.338,12.272 32.935,11.821 33.565,11.899 C34.208,11.980 34.662,12.564 34.586,13.208 C33.791,19.472 25.579,21.780 25.231,21.876 C25.125,21.903 25.019,21.916 24.919,21.916 ZM16.250,40.723 C16.250,44.363 19.920,46.143 18.660,48.785 C22.998,53.185 17.574,54.126 17.574,54.126 C15.809,54.726 15.492,52.869 15.492,52.869 L11.789,41.906 C10.999,39.075 9.243,39.599 9.243,39.599 C4.780,41.111 3.154,35.992 3.154,35.992 L1.100,29.928 C-0.391,25.523 4.097,23.784 4.097,23.784 L9.862,21.832 C11.722,21.203 12.003,22.958 12.003,22.958 L16.651,36.993 C17.041,38.167 16.250,40.723 16.250,40.723 Z"/>
</svg>