<svg 
 xmlns="http://www.w3.org/2000/svg"
 xmlns:xlink="http://www.w3.org/1999/xlink"
 width="34px" height="55px">
<path fill-rule="evenodd"  fill="rgb(0, 0, 0)"
 d="M29.292,54.250 L4.397,54.250 C1.973,54.250 0.003,52.304 0.003,49.909 L0.003,4.337 C0.003,1.943 1.973,-0.004 4.397,-0.004 L29.292,-0.004 C31.717,-0.004 33.686,1.943 33.686,4.337 L33.686,49.909 C33.686,52.304 31.717,54.250 29.292,54.250 ZM16.845,52.622 C18.155,52.622 19.225,51.566 19.225,50.271 C19.225,48.976 18.155,47.920 16.845,47.920 C15.534,47.920 14.465,48.976 14.465,50.271 C14.465,51.566 15.534,52.622 16.845,52.622 ZM30.024,8.678 C30.024,8.280 29.695,7.954 29.292,7.954 L4.397,7.954 C3.994,7.954 3.665,8.280 3.665,8.678 L3.665,45.570 C3.665,45.967 3.994,46.292 4.397,46.292 L29.292,46.292 C29.695,46.292 30.024,45.967 30.024,45.570 L30.024,8.678 ZM27.102,42.676 L17.576,42.676 C17.176,42.676 16.852,42.355 16.852,41.959 L16.852,41.946 C16.852,41.550 17.177,41.228 17.576,41.228 L27.102,41.228 C27.503,41.228 27.828,41.550 27.828,41.946 L27.828,41.959 C27.828,42.355 27.503,42.676 27.102,42.676 ZM27.102,39.059 L17.576,39.059 C17.176,39.059 16.852,38.738 16.852,38.343 L16.852,38.328 C16.852,37.933 17.177,37.612 17.576,37.612 L27.102,37.612 C27.503,37.612 27.828,37.933 27.828,38.328 L27.828,38.343 C27.828,38.739 27.503,39.059 27.102,39.059 ZM27.102,33.995 L17.576,33.995 C17.176,33.995 16.852,33.674 16.852,33.279 L16.852,33.264 C16.852,32.869 17.177,32.549 17.576,32.549 L27.102,32.549 C27.503,32.549 27.828,32.869 27.828,33.264 L27.828,33.279 C27.828,33.674 27.503,33.995 27.102,33.995 ZM27.102,30.379 L17.576,30.379 C17.176,30.379 16.852,30.057 16.852,29.662 L16.852,29.648 C16.852,29.253 17.177,28.932 17.576,28.932 L27.102,28.932 C27.503,28.932 27.828,29.253 27.828,29.648 L27.828,29.662 C27.828,30.058 27.503,30.379 27.102,30.379 ZM27.102,25.314 L17.576,25.314 C17.176,25.314 16.852,24.993 16.852,24.598 L16.852,24.584 C16.852,24.189 17.177,23.868 17.576,23.868 L27.102,23.868 C27.503,23.868 27.828,24.189 27.828,24.584 L27.828,24.598 C27.828,24.993 27.503,25.314 27.102,25.314 ZM27.102,21.698 L17.576,21.698 C17.176,21.698 16.852,21.377 16.852,20.982 L16.852,20.968 C16.852,20.571 17.177,20.251 17.576,20.251 L27.102,20.251 C27.503,20.251 27.828,20.572 27.828,20.968 L27.828,20.982 C27.828,21.377 27.503,21.698 27.102,21.698 ZM27.096,15.910 L17.571,15.910 C17.169,15.910 16.845,15.590 16.845,15.195 L16.845,15.181 C16.845,14.785 17.169,14.465 17.571,14.465 L27.096,14.465 C27.498,14.465 27.821,14.785 27.821,15.181 L27.821,15.195 C27.821,15.590 27.496,15.910 27.096,15.910 ZM27.096,12.294 L17.571,12.294 C17.169,12.294 16.845,11.974 16.845,11.578 L16.845,11.564 C16.845,11.168 17.169,10.848 17.571,10.848 L27.096,10.848 C27.498,10.848 27.821,11.168 27.821,11.564 L27.821,11.578 C27.821,11.974 27.496,12.294 27.096,12.294 ZM14.465,39.421 C14.363,39.421 14.268,39.401 14.176,39.370 L12.671,41.282 C12.763,41.424 12.818,41.591 12.818,41.771 C12.818,42.270 12.407,42.676 11.902,42.676 C11.398,42.676 10.987,42.270 10.987,41.771 C10.987,41.694 10.999,41.619 11.019,41.548 L9.156,40.321 C9.003,40.434 8.814,40.506 8.608,40.506 C8.487,40.506 8.373,40.481 8.267,40.439 L6.839,42.052 C6.914,42.184 6.961,42.332 6.961,42.495 C6.961,42.993 6.550,43.399 6.045,43.399 C5.540,43.399 5.130,42.993 5.130,42.495 C5.130,41.996 5.540,41.590 6.045,41.590 C6.165,41.590 6.280,41.615 6.385,41.657 L7.814,40.043 C7.739,39.912 7.692,39.763 7.692,39.601 C7.692,39.102 8.102,38.697 8.608,38.697 C9.112,38.697 9.523,39.102 9.523,39.601 C9.523,39.679 9.510,39.753 9.491,39.825 L11.354,41.051 C11.507,40.938 11.696,40.867 11.902,40.867 C12.004,40.867 12.100,40.887 12.191,40.918 L13.696,39.006 C13.604,38.863 13.550,38.697 13.550,38.516 C13.550,38.017 13.960,37.612 14.465,37.612 C14.969,37.612 15.380,38.018 15.380,38.516 C15.380,39.015 14.969,39.421 14.465,39.421 ZM11.719,10.124 L13.916,10.124 L13.916,17.358 L11.719,17.358 L11.719,10.124 ZM9.751,36.200 L9.751,35.431 C8.659,35.305 8.057,34.644 8.057,34.644 L8.651,33.832 C8.651,33.832 9.302,34.459 10.150,34.459 C10.606,34.459 11.021,34.225 11.021,33.740 C11.021,32.736 8.159,32.836 8.159,31.039 C8.159,30.176 8.811,29.508 9.751,29.356 L9.751,28.570 L10.480,28.570 L10.480,29.340 C11.462,29.424 11.970,29.951 11.970,29.951 L11.496,30.829 C11.496,30.829 10.921,30.310 10.166,30.310 C9.658,30.310 9.261,30.603 9.261,31.020 C9.261,32.017 12.115,31.841 12.115,33.715 C12.115,34.569 11.513,35.296 10.480,35.431 L10.480,36.200 L9.751,36.200 ZM13.867,23.748 C13.621,25.247 12.383,26.471 10.865,26.714 C8.833,27.037 7.046,25.705 6.668,23.868 L10.255,23.868 C10.659,23.868 10.987,23.544 10.987,23.145 L10.987,19.602 C12.847,19.974 14.195,21.739 13.867,23.748 ZM8.790,13.018 L10.987,13.018 L10.987,17.358 L8.790,17.358 L8.790,13.018 ZM10.255,22.783 C10.255,22.982 10.091,23.145 9.889,23.145 L6.594,23.145 C6.594,21.148 8.233,19.528 10.255,19.528 L10.255,22.783 ZM5.862,15.187 L8.057,15.187 L8.057,17.357 L5.862,17.357 L5.862,15.187 Z"/>
</svg>