<svg 
 xmlns="http://www.w3.org/2000/svg"
 xmlns:xlink="http://www.w3.org/1999/xlink"
 width="57px" height="47px">
<path fill-rule="evenodd"  fill="rgb(0, 0, 0)"
 d="M16.966,26.945 C16.966,33.274 22.096,38.404 28.425,38.404 C34.754,38.404 39.885,33.274 39.885,26.945 C39.885,20.616 34.754,15.485 28.425,15.485 C22.096,15.485 16.966,20.616 16.966,26.945 ZM53.107,7.552 L40.766,7.552 C39.885,4.026 39.003,0.500 35.477,0.500 L21.373,0.500 C17.847,0.500 16.966,4.026 16.084,7.552 L3.743,7.552 C1.804,7.552 0.217,9.138 0.217,11.078 L0.217,42.812 C0.217,44.751 1.804,46.338 3.743,46.338 L53.107,46.338 C55.047,46.338 56.633,44.751 56.633,42.812 L56.633,11.078 C56.633,9.138 55.047,7.552 53.107,7.552 ZM28.425,42.591 C19.784,42.591 12.778,35.587 12.778,26.945 C12.778,18.303 19.784,11.298 28.425,11.298 C37.067,11.298 44.072,18.303 44.072,26.945 C44.072,35.587 37.067,42.591 28.425,42.591 ZM53.107,18.130 L46.055,18.130 L46.055,14.604 L53.107,14.604 L53.107,18.130 Z"/>
</svg>