<svg 
 xmlns="http://www.w3.org/2000/svg"
 xmlns:xlink="http://www.w3.org/1999/xlink"
 width="31px" height="31px">
<path fill-rule="evenodd"  fill="rgb(178, 178, 178)"
 d="M15.125,30.375 C6.840,30.375 0.125,23.659 0.125,15.375 C0.125,7.090 6.840,0.375 15.125,0.375 C23.410,0.375 30.125,7.090 30.125,15.375 C30.125,23.659 23.410,30.375 15.125,30.375 ZM15.125,2.718 C8.135,2.718 2.469,8.385 2.469,15.375 C2.469,22.365 8.135,28.031 15.125,28.031 C22.115,28.031 27.781,22.365 27.781,15.375 C27.781,8.385 22.115,2.718 15.125,2.718 ZM15.125,22.875 C10.983,22.875 7.625,19.517 7.625,15.375 C7.625,11.232 10.983,7.876 15.125,7.875 C19.267,7.876 22.625,11.232 22.625,15.375 C22.625,19.517 19.267,22.875 15.125,22.875 ZM15.125,21.226 C15.856,21.226 16.555,21.089 17.202,20.843 C16.895,19.237 16.492,17.810 16.047,16.561 C14.736,16.988 13.732,17.706 13.006,18.402 C12.300,19.079 11.856,19.732 11.648,20.072 C12.622,20.796 13.822,21.226 15.125,21.226 ZM9.274,15.375 C9.274,16.810 9.795,18.119 10.657,19.139 C10.965,18.670 11.490,17.968 12.270,17.257 C13.080,16.519 14.175,15.779 15.564,15.315 C15.453,15.045 15.341,14.787 15.227,14.539 C13.147,15.196 11.093,15.294 9.916,15.302 C9.657,15.302 9.443,15.297 9.277,15.291 C9.275,15.320 9.274,15.347 9.274,15.375 ZM9.448,13.958 C9.579,13.961 9.734,13.965 9.916,13.965 C9.945,13.965 9.976,13.965 10.007,13.965 C11.084,13.965 12.862,13.842 14.628,13.317 C13.760,11.668 12.946,10.613 12.540,10.133 C11.018,10.887 9.868,12.278 9.448,13.958 ZM15.125,9.524 C14.697,9.524 14.283,9.575 13.881,9.663 C14.389,10.312 15.131,11.376 15.900,12.863 C16.994,12.392 18.007,11.728 18.774,10.809 C17.772,10.006 16.506,9.524 15.125,9.524 ZM19.720,11.764 C18.802,12.813 17.666,13.551 16.484,14.069 C16.615,14.360 16.745,14.664 16.875,14.981 C17.406,14.887 17.970,14.833 18.570,14.833 L18.576,14.833 C19.321,14.833 20.121,14.921 20.968,15.100 C20.910,13.843 20.452,12.692 19.720,11.764 ZM18.574,16.170 L18.573,16.170 L18.572,16.170 L18.557,16.170 C18.136,16.170 17.737,16.201 17.357,16.256 C17.766,17.426 18.140,18.735 18.436,20.188 C19.686,19.325 20.582,17.993 20.870,16.446 C20.038,16.257 19.271,16.170 18.574,16.170 Z"/>
</svg>