<svg 
 xmlns="http://www.w3.org/2000/svg"
 xmlns:xlink="http://www.w3.org/1999/xlink"
 width="31px" height="31px">
<path fill-rule="evenodd"  fill="rgb(178, 178, 178)"
 d="M15.500,31.000 C6.939,31.000 -0.000,24.061 -0.000,15.500 C-0.000,6.939 6.939,-0.000 15.500,-0.000 C24.061,-0.000 31.000,6.939 31.000,15.500 C31.000,24.061 24.061,31.000 15.500,31.000 ZM15.500,2.422 C8.277,2.422 2.422,8.277 2.422,15.500 C2.422,22.723 8.277,28.578 15.500,28.578 C22.723,28.578 28.578,22.723 28.578,15.500 C28.578,8.277 22.723,2.422 15.500,2.422 ZM19.178,13.127 L18.762,15.863 L16.482,15.863 C16.482,19.336 16.482,23.250 16.482,23.250 L13.798,23.250 C13.798,23.250 13.798,19.376 13.798,15.863 L11.822,15.863 L11.822,13.127 L13.798,13.127 L13.798,10.999 C13.798,9.730 14.420,7.750 17.143,7.750 L19.139,7.760 L19.139,10.416 C19.139,10.416 17.687,10.416 17.398,10.416 C17.106,10.416 16.482,10.556 16.482,11.159 L16.482,13.127 L19.178,13.127 Z"/>
</svg>