<svg 
 xmlns="http://www.w3.org/2000/svg"
 xmlns:xlink="http://www.w3.org/1999/xlink"
 width="31px" height="32px">
<path fill-rule="evenodd"  fill="rgb(178, 178, 178)"
 d="M15.416,31.500 C6.902,31.500 -0.000,24.598 -0.000,16.083 C-0.000,7.568 6.902,0.667 15.416,0.667 C23.931,0.667 30.833,7.568 30.833,16.083 C30.833,24.598 23.931,31.500 15.416,31.500 ZM15.416,3.075 C8.232,3.075 2.409,8.899 2.409,16.083 C2.409,23.268 8.232,29.091 15.416,29.091 C22.601,29.091 28.424,23.268 28.424,16.083 C28.424,8.899 22.601,3.075 15.416,3.075 ZM21.243,13.191 L20.262,13.191 L20.262,11.289 L18.343,11.289 L18.343,10.305 L20.262,10.305 L20.262,8.407 L21.243,8.407 L21.243,10.305 L23.130,10.305 L23.130,11.289 L21.243,11.289 L21.243,13.191 ZM15.234,9.003 C15.234,9.003 16.598,9.847 16.598,11.497 C16.598,13.147 15.800,13.866 14.794,14.755 C13.787,15.643 14.374,16.172 15.947,17.292 C17.520,18.412 17.961,20.891 15.926,22.688 C13.892,24.485 7.703,24.244 7.703,20.909 C7.703,17.575 12.360,17.524 12.739,17.524 C13.115,17.524 13.179,17.418 12.865,17.080 C12.548,16.744 12.044,16.087 12.633,15.368 C11.583,15.411 8.689,14.839 8.689,12.174 C8.689,9.509 11.480,8.368 12.484,8.368 L17.500,8.368 C17.500,8.368 17.270,8.559 16.745,8.853 C16.220,9.150 15.234,9.003 15.234,9.003 ZM9.485,20.296 C9.485,21.840 10.597,22.876 12.673,22.876 C14.747,22.876 15.968,22.179 15.968,20.740 C15.968,19.300 14.596,18.581 13.828,17.990 C10.996,17.990 9.485,18.751 9.485,20.296 ZM12.276,8.876 C9.338,8.876 10.471,14.711 12.968,14.711 C16.282,14.711 14.562,8.791 12.276,8.876 Z"/>
</svg>