<svg 
 xmlns="http://www.w3.org/2000/svg"
 xmlns:xlink="http://www.w3.org/1999/xlink"
 width="31px" height="31px">
<path fill-rule="evenodd"  fill="rgb(178, 178, 178)"
 d="M15.250,30.500 C6.827,30.500 -0.000,23.673 -0.000,15.250 C-0.000,6.827 6.827,-0.000 15.250,-0.000 C23.673,-0.000 30.500,6.827 30.500,15.250 C30.500,23.673 23.673,30.500 15.250,30.500 ZM15.250,2.383 C8.143,2.383 2.383,8.143 2.383,15.250 C2.383,22.356 8.143,28.117 15.250,28.117 C22.357,28.117 28.117,22.356 28.117,15.250 C28.117,8.143 22.357,2.383 15.250,2.383 ZM20.021,16.196 C19.980,15.972 19.327,14.369 18.115,14.290 C15.859,13.992 15.256,15.952 15.256,16.196 L15.256,22.868 L12.396,22.868 L12.396,11.431 L15.256,11.431 L15.256,13.337 C15.416,13.256 16.620,11.472 19.068,11.431 C22.197,11.472 22.769,13.820 22.869,14.963 L22.869,22.881 L20.021,22.868 L20.021,16.196 ZM7.631,11.431 L10.490,11.431 L10.490,22.868 L7.631,22.868 L7.631,11.431 ZM9.060,10.478 C8.271,10.478 7.631,9.838 7.631,9.048 C7.631,8.258 8.271,7.618 9.060,7.618 C9.850,7.618 10.490,8.258 10.490,9.048 C10.490,9.838 9.850,10.478 9.060,10.478 Z"/>
</svg>