<svg 
 xmlns="http://www.w3.org/2000/svg"
 xmlns:xlink="http://www.w3.org/1999/xlink"
 width="33px" height="32px">
<path fill-rule="evenodd"  fill="rgb(178, 178, 178)"
 d="M16.500,32.000 C7.801,32.000 0.750,24.949 0.750,16.250 C0.750,7.551 7.801,0.500 16.500,0.500 C25.199,0.500 32.250,7.551 32.250,16.250 C32.250,24.949 25.199,32.000 16.500,32.000 ZM16.500,2.961 C9.160,2.961 3.211,8.910 3.211,16.250 C3.211,23.589 9.160,29.539 16.500,29.539 C23.840,29.539 29.789,23.589 29.789,16.250 C29.789,8.910 23.840,2.961 16.500,2.961 ZM22.799,12.806 C22.799,12.824 22.801,12.841 22.801,12.859 C22.801,12.872 22.799,12.887 22.799,12.902 C22.799,12.908 22.801,12.915 22.801,12.922 C23.020,18.565 18.949,23.140 13.707,23.140 C11.863,23.140 10.120,22.573 8.625,21.593 C10.825,21.969 12.604,20.789 13.125,20.141 C11.663,20.141 10.325,18.795 10.221,17.765 C10.516,17.814 11.191,17.877 11.573,17.655 C9.589,17.070 9.044,15.455 9.067,14.237 C9.399,14.584 10.104,14.663 10.486,14.631 C9.368,13.887 8.516,11.845 9.501,10.008 C11.104,12.257 13.949,13.571 16.384,13.638 L16.384,13.638 C16.331,13.387 16.301,13.126 16.301,12.859 C16.301,10.926 17.756,9.359 19.550,9.359 C20.475,9.359 21.307,9.775 21.900,10.441 C21.899,10.440 21.899,10.439 21.899,10.439 C22.418,10.439 23.469,9.980 23.926,9.666 C23.752,10.385 23.047,11.290 22.572,11.566 C23.314,11.487 24.110,11.173 24.375,11.016 C23.916,11.834 23.276,12.456 22.799,12.806 Z"/>
</svg>