<svg 
 xmlns="http://www.w3.org/2000/svg"
 xmlns:xlink="http://www.w3.org/1999/xlink"
 width="14px" height="15px">
<path fill-rule="evenodd"  fill="rgb(90, 90, 90)"
 d="M9.333,7.499 C9.333,6.214 8.285,5.166 7.000,5.166 C5.715,5.166 4.667,6.214 4.667,7.499 C4.667,8.785 5.715,9.833 7.000,9.833 C8.285,9.833 9.333,8.785 9.333,7.499 ZM7.000,2.541 C9.734,2.541 11.958,4.765 11.958,7.499 C11.958,10.234 9.734,12.458 7.000,12.458 C4.265,12.458 2.042,10.234 2.042,7.499 C2.042,4.765 4.265,2.541 7.000,2.541 ZM14.000,7.499 C14.000,3.635 10.865,0.500 7.000,0.500 L7.000,0.500 C3.135,0.500 -0.000,3.635 -0.000,7.499 C-0.000,11.364 3.135,14.500 7.000,14.500 C10.865,14.500 14.000,11.364 14.000,7.499 Z"/>
</svg>